<?xml version="1.0" encoding="utf-8"?>
<!-- Generator: Adobe Illustrator 27.0.0, SVG Export Plug-In . SVG Version: 6.00 Build 0)  -->
<svg version="1.1" id="Layer_1" xmlns="http://www.w3.org/2000/svg" xmlns:xlink="http://www.w3.org/1999/xlink" x="0px" y="0px"
	 viewBox="0 0 210.9 99.4" style="enable-background:new 0 0 210.9 99.4;" xml:space="preserve">
<style type="text/css">
	.st0{fill:#090809;}
	.st1{fill:#3464AB;}
	.st2{fill:#75B743;}
	.st3{fill:#060507;}
</style>
<rect x="0" y="48.4" class="st0" width="210.9" height="0.6"/>
<g>
	<path class="st0" d="M19.1,83.3H6.8L4,91H0l11.2-29.4h3.4L25.9,91h-4L19.1,83.3z M7.9,80.1h10l-5-13.8L7.9,80.1z"/>
	<path class="st0" d="M28.4,79.9c0-3.4,0.8-6.2,2.4-8.2c1.6-2,3.7-3,6.3-3c2.6,0,4.6,0.9,6.1,2.6l0.2-2.2h3.4v30.3H43V89
		c-1.5,1.6-3.5,2.4-6,2.4c-2.6,0-4.7-1-6.3-3.1c-1.6-2.1-2.4-4.8-2.4-8.2V79.9z M32.1,80.3c0,2.5,0.5,4.5,1.6,5.9s2.5,2.1,4.3,2.1
		c2.2,0,3.9-1,5.1-3V74.7c-1.2-1.9-2.9-2.9-5.1-2.9c-1.8,0-3.2,0.7-4.3,2.2C32.6,75.4,32.1,77.5,32.1,80.3z"/>
	<path class="st0" d="M66.3,88.8c-1.5,1.7-3.6,2.6-6.4,2.6c-2.3,0-4.1-0.7-5.3-2s-1.8-3.4-1.8-6V69.1h3.7v14.1c0,3.3,1.3,5,4,5
		c2.9,0,4.8-1.1,5.7-3.2V69.1h3.7V91h-3.6L66.3,88.8z"/>
	<path class="st0" d="M89.1,91c-0.2-0.4-0.4-1.2-0.5-2.3c-1.7,1.8-3.8,2.7-6.2,2.7c-2.2,0-3.9-0.6-5.3-1.8c-1.4-1.2-2.1-2.8-2.1-4.6
		c0-2.3,0.9-4,2.6-5.3c1.7-1.3,4.2-1.9,7.3-1.9h3.6V76c0-1.3-0.4-2.3-1.2-3.1c-0.8-0.8-1.9-1.2-3.5-1.2c-1.3,0-2.5,0.3-3.4,1
		c-0.9,0.7-1.4,1.5-1.4,2.4h-3.8c0-1.1,0.4-2.1,1.2-3.2c0.8-1,1.8-1.8,3.2-2.4c1.3-0.6,2.8-0.9,4.4-0.9c2.5,0,4.5,0.6,5.9,1.9
		c1.4,1.3,2.2,3,2.2,5.2v10.1c0,2,0.3,3.6,0.8,4.8V91H89.1z M82.9,88.1c1.2,0,2.3-0.3,3.3-0.9c1.1-0.6,1.8-1.4,2.3-2.4v-4.5h-2.9
		c-4.6,0-6.9,1.3-6.9,4c0,1.2,0.4,2.1,1.2,2.7S81.7,88.1,82.9,88.1z"/>
	<path class="st0" d="M102.9,91H99V61.6h3.9V91z"/>
	<path class="st0" d="M132.6,91h-3.9l-14.8-22.7V91H110V61.6h3.9l14.9,22.8V61.6h3.9V91z"/>
	<path class="st0" d="M155.7,78h-12.3v13h-3.9V61.6h18.2v3.2h-14.3v10.1h12.3V78z"/>
	<path class="st0" d="M173.1,79.1h-6.9V91h-3.9V61.6h9.7c3.3,0,5.9,0.8,7.6,2.3c1.8,1.5,2.7,3.7,2.7,6.6c0,1.8-0.5,3.4-1.5,4.8
		c-1,1.4-2.4,2.4-4.1,3.1l6.9,12.5V91h-4.2L173.1,79.1z M166.2,75.9h6c1.9,0,3.5-0.5,4.6-1.5c1.1-1,1.7-2.3,1.7-4
		c0-1.8-0.5-3.2-1.6-4.2c-1.1-1-2.7-1.5-4.7-1.5h-5.9V75.9z"/>
	<path class="st0" d="M204.1,83.3h-12.3L189,91h-4l11.2-29.4h3.4L210.9,91h-4L204.1,83.3z M192.9,80.1h10l-5-13.8L192.9,80.1z"/>
</g>
<g>
	<path class="st1" d="M27.3,2.8C24.4,1,21.1,0,17.7,0C14.2,0,10.9,1,8,2.8c-0.6,0.4-1,1-1,1.7C6.9,5.2,7.2,5.9,7.7,6.5l1,1
		c0.5,0.5,1.1,0.7,1.7,0.7c0.4,0,0.8-0.1,1.2-0.3c1.8-1.1,4-1.7,6.1-1.7c2.2,0,4.3,0.6,6.1,1.7c0.9,0.6,2.1,0.4,2.9-0.3l1-1
		c0.5-0.5,0.8-1.2,0.7-1.9C28.2,3.8,27.8,3.2,27.3,2.8"/>
	<path class="st2" d="M14.9,29.2c-5.4-1.3-9.1-6-9.1-11.5c0-2.2,0.6-4.3,1.8-6.2c0.5-0.9,0.4-2-0.3-2.8l-1-1
		C5.8,7.4,5.1,7.1,4.4,7.2c-0.7,0.1-1.3,0.4-1.6,1C1,11,0,14.3,0,17.7C0,26,5.9,33.3,13.9,35c0.2,0,0.3,0,0.5,0c0.5,0,1-0.2,1.4-0.5
		c0.5-0.4,0.8-1.1,0.8-1.8v-1.3C16.6,30.4,15.9,29.5,14.9,29.2"/>
	<path class="st1" d="M47.1,0.1c-9.7,0-17.7,7.9-17.7,17.7c0,0,0,0.1,0,0.1c0,0,0,0.1,0,0.1c-0.1,5.5-4.1,10.3-9.5,11.4
		c-0.7,0.1-1.3,0.8-1.3,1.6v2.7c0,0.5,0.2,0.9,0.6,1.2c0.4,0.3,0.8,0.4,1.3,0.4c8.6-1.4,14.8-8.7,14.8-17.4
		c0-6.5,5.3-11.8,11.8-11.8s11.8,5.3,11.8,11.8c0,6.5-5.3,11.8-11.8,11.8c-1.6,0-2.9,1.3-2.9,2.9c0,1.6,1.3,2.9,2.9,2.9
		c9.7,0,17.7-7.9,17.7-17.7C64.8,8,56.9,0.1,47.1,0.1"/>
	<path class="st3" d="M104.2,17.9c0.5-0.5,0.8-1,0.8-1.7c0-2.5-0.5-4.7-1.4-6.7c-0.9-2-2-3.7-3.5-5.1c-1.4-1.4-3.1-2.5-5-3.3
		C93.3,0.4,91.4,0,89.4,0c-2.7,0-5.3,0.7-7.7,2.1c-2.4,1.4-4.4,3.5-5.9,6.1c-1.5,2.7-2.3,5.9-2.3,9.7c0,3.4,0.7,6.4,2.2,9
		c1.4,2.6,3.5,4.6,6.1,6.1c2.6,1.5,5.7,2.2,9.2,2.2c2.4,0,4.6-0.5,6.6-1.5c2.1-1,3.7-2.2,5-3.5c0.7-0.6,1-1.3,1-2
		c0-0.6-0.2-1.1-0.7-1.6c-0.4-0.4-1-0.7-1.6-0.7c-0.6,0-1.1,0.2-1.7,0.6c-0.6,0.6-1.3,1.2-2.1,1.8c-0.8,0.6-1.8,1.1-2.9,1.5
		c-1.1,0.4-2.5,0.6-4,0.6c-2.4,0-4.6-0.6-6.4-1.7c-1.8-1.1-3.3-2.6-4.3-4.5c-0.9-1.7-1.4-3.6-1.5-5.7h23.8
		C103.1,18.6,103.7,18.3,104.2,17.9 M82,7.8c1-1,2.2-1.7,3.5-2.2c1.3-0.5,2.6-0.7,3.9-0.7c1.6,0,3.1,0.4,4.6,1
		c1.5,0.7,2.7,1.7,3.7,3c1,1.3,1.6,2.8,1.7,4.6v0.5H78.9c0.2-0.8,0.4-1.6,0.6-2.3C80.2,10.2,81,8.8,82,7.8"/>
	<path class="st3" d="M144.9,17.7c0,3.4-0.7,6.4-2.3,9.1c-1.5,2.7-3.5,4.8-6.1,6.3c-2.6,1.5-5.4,2.3-8.6,2.3s-6.1-0.8-8.6-2.3
		c-2.6-1.5-4.6-3.6-6.1-6.3c-1.5-2.7-2.3-5.7-2.3-9.1s0.8-6.4,2.3-9.1c1.5-2.7,3.5-4.8,6.1-6.3C122,0.8,124.8,0,128,0s6,0.8,8.6,2.3
		s4.6,3.6,6.1,6.3C144.2,11.2,144.9,14.3,144.9,17.7 M139.7,17.7c0-2.5-0.5-4.7-1.5-6.6c-1-1.9-2.4-3.4-4.2-4.5
		c-1.8-1.1-3.7-1.7-5.9-1.7c-2.2,0-4.2,0.6-6,1.7c-1.8,1.1-3.2,2.6-4.2,4.5c-1,1.9-1.6,4.1-1.6,6.6c0,2.5,0.5,4.7,1.6,6.6
		c1,1.9,2.5,3.4,4.2,4.5c1.8,1.1,3.8,1.7,6,1.7c2.2,0,4.2-0.6,5.9-1.7c1.8-1.1,3.2-2.6,4.2-4.5C139.1,22.3,139.7,20.1,139.7,17.7"/>
	<path class="st3" d="M150.8,29.3c-0.3-0.6-0.5-1.2-0.5-1.8c0-0.6,0.4-1.2,1.1-1.7c0.5-0.3,1-0.4,1.6-0.4c0.6,0,1.1,0.3,1.6,0.9
		c1.2,1.4,2.6,2.6,4.2,3.4c1.6,0.9,3.5,1.3,5.8,1.3c1,0,2-0.2,3.1-0.5c1.1-0.3,2-0.8,2.7-1.6c0.7-0.8,1.1-1.8,1.1-3
		c0-1.2-0.4-2.2-1.1-2.9c-0.7-0.7-1.7-1.3-2.9-1.8c-1.2-0.5-2.5-0.9-3.8-1.2c-1.4-0.4-2.9-0.8-4.2-1.3c-1.4-0.5-2.6-1.1-3.8-1.9
		c-1.1-0.8-2-1.7-2.7-2.9s-1-2.6-1-4.3c0-2,0.5-3.7,1.6-5.1c1.1-1.4,2.5-2.6,4.3-3.3c1.8-0.8,3.8-1.2,6-1.2c1.2,0,2.5,0.1,3.8,0.4
		c1.3,0.3,2.6,0.8,3.9,1.4c1.3,0.7,2.4,1.6,3.3,2.8c0.4,0.4,0.6,1,0.7,1.6c0,0.7-0.2,1.2-0.9,1.8c-0.5,0.3-1,0.5-1.6,0.5
		c-0.6,0-1.1-0.2-1.5-0.6c-1-1.1-2.1-2-3.5-2.6c-1.4-0.6-2.9-0.9-4.5-0.9c-1,0-2,0.2-3,0.5c-1,0.3-1.8,0.8-2.5,1.5
		c-0.7,0.7-1,1.7-1,2.9c0,1.2,0.4,2.1,1.2,2.9c0.7,0.7,1.7,1.3,3,1.8c1.3,0.5,2.7,0.9,4.2,1.3c1.4,0.3,2.7,0.8,4,1.2
		c1.3,0.5,2.5,1.1,3.5,1.8c1,0.7,1.9,1.7,2.5,2.8c0.6,1.2,0.9,2.6,0.9,4.3c0,2-0.6,3.7-1.7,5.2c-1.1,1.5-2.6,2.6-4.5,3.3
		c-1.9,0.8-3.8,1.1-6,1.1c-2.4,0-4.8-0.4-7.1-1.3C154.6,33.1,152.5,31.5,150.8,29.3"/>
	<path class="st3" d="M198.8,0c2.3,0,4.3,0.2,6.1,0.7c1.8,0.5,3.2,1.1,4.2,2c1,0.8,1.6,1.8,1.6,2.8c0,0.6-0.2,1.2-0.6,1.7
		c-0.4,0.5-0.9,0.8-1.6,0.8c-0.6,0-1-0.1-1.4-0.4c-0.4-0.2-0.7-0.5-1-0.8c-0.3-0.3-0.8-0.6-1.3-0.9c-0.5-0.3-1.3-0.5-2.3-0.7
		c-1-0.2-2-0.3-3-0.3c-2.4,0-4.5,0.6-6.3,1.7c-1.8,1.1-3.2,2.7-4.3,4.6c-1,1.9-1.6,4.1-1.6,6.5c0,2.4,0.5,4.6,1.5,6.5
		c1,1.9,2.4,3.4,4.2,4.6c1.8,1.1,3.9,1.7,6.2,1.7c1.5,0,2.7-0.1,3.6-0.4c0.9-0.3,1.7-0.6,2.3-0.9c0.7-0.4,1.3-0.9,1.7-1.3
		c0.4-0.4,1-0.7,1.7-0.7c0.7,0,1.3,0.2,1.7,0.7c0.4,0.5,0.6,1.1,0.6,1.8c0,0.8-0.5,1.7-1.6,2.5c-1.1,0.9-2.6,1.6-4.4,2.2
		c-1.9,0.6-4,0.9-6.3,0.9c-3.3,0-6.2-0.8-8.7-2.3c-2.5-1.5-4.4-3.7-5.8-6.3c-1.4-2.7-2.1-5.7-2.1-9c0-3.3,0.7-6.3,2.1-9
		c1.4-2.7,3.4-4.8,5.9-6.3C192.5,0.8,195.5,0,198.8,0"/>
</g>
</svg>
